<svg xmlns="http://www.w3.org/2000/svg" width="298px" height="420px" viewBox="0 0 298 420"><g stroke="none" stroke-width="1" fill="none" fill-rule="evenodd"><g fill-rule="nonzero"><polygon fill="#1572B6" points="27.071 386.155 0 82.535 297.45 82.535 270.354 386.106 148.543 419.876"/><polygon fill="#33A9DC" points="148.727 394.064 247.154 366.776 270.311 107.361 148.727 107.361"/><g transform="translate(54.929000, 141.865000)"><polygon fill="#FFFFFF" points="93.797 75.496 143.072 75.496 146.475 37.364 93.797 37.364 93.797 0.125 93.926 0.125 187.172 0.125 186.279 10.116 177.127 112.732 93.797 112.732"/><polygon fill="#EBEBEB" points="94.02 172.204 93.857 172.25 52.385 161.051 49.733 131.353 29.582 131.353 12.354 131.353 17.57 189.82 93.848 210.996 94.02 210.948"/><polygon fill="#FFFFFF" points="139.907 111.156 135.423 161.026 93.891 172.236 93.891 210.978 170.23 189.82 170.79 183.53 177.268 111.156"/><polygon fill="#EBEBEB" points="93.926 0.125 93.926 23.253 93.926 37.272 93.926 37.364 4.098 37.364 4.098 37.364 3.979 37.364 3.232 28.994 1.535 10.116 0.645 0.125"/><polygon fill="#EBEBEB" points="93.797 75.5 93.797 98.629 93.797 112.646 93.797 112.738 52.969 112.738 52.969 112.738 52.85 112.738 52.104 104.369 50.406 85.491 49.516 75.5"/></g><path class="dark-path" d="M233.093,15.546 L208.405,15.546 L234.079,43.405 L234.079,56.666 L181.197,56.666 L181.197,41.14 L206.866,41.14 L181.197,13.28 L181.197,0 L233.093,0 L233.093,15.546 L233.093,15.546 Z M170.715,15.546 L146.027,15.546 L171.7,43.405 L171.7,56.666 L118.818,56.666 L118.818,41.14 L144.49,41.14 L118.818,13.28 L118.818,0 L170.715,0 L170.715,15.546 L170.715,15.546 Z M108.947,16.177 L82.307,16.177 L82.307,40.49 L108.947,40.49 L108.947,56.666 L63.373,56.666 L63.373,1.42108547e-14 L108.947,1.42108547e-14 L108.947,16.177 Z" fill="#000000"/></g></g></svg>