<svg xmlns="http://www.w3.org/2000/svg" width="298px" height="420px" viewBox="0 0 298 420"><g stroke="none" stroke-width="1" fill="none" fill-rule="evenodd"><g fill-rule="nonzero"><polygon fill="#E44F26" points="27.383 386.266 0.313 82.646 297.763 82.646 270.665 386.217 148.856 419.986"/><polygon fill="#F1662A" points="149.038 394.175 247.465 366.887 270.623 107.471 149.038 107.471"/><polygon fill="#EBEBEB" points="149.038 220.08 99.763 220.08 96.359 181.948 149.038 181.948 149.038 144.709 148.909 144.709 55.663 144.709 56.555 154.7 65.707 257.316 149.038 257.316"/><polygon fill="#EBEBEB" points="149.038 316.788 148.875 316.834 107.403 305.635 104.751 275.937 84.6 275.937 67.371 275.937 72.588 334.404 148.866 355.58 149.038 355.532"/><polygon class="dark-path" fill="#000000" points="27.988 0.135 46.912 0.135 46.912 18.831 64.223 18.831 64.223 0.135 83.148 0.135 83.148 56.753 64.224 56.753 64.224 37.795 46.914 37.795 46.914 56.753 27.988 56.753"/><polygon class="dark-path" fill="#000000" points="108.032 18.91 91.372 18.91 91.372 0.135 143.624 0.135 143.624 18.91 126.957 18.91 126.957 56.753 108.033 56.753 108.033 18.91"/><polygon class="dark-path" fill="#000000" points="151.917 0.135 171.65 0.135 183.787 20.029 195.914 0.135 215.653 0.135 215.653 56.753 196.807 56.753 196.807 28.69 183.786 48.82 183.461 48.82 170.433 28.69 170.433 56.753 151.916 56.753 151.916 0.135"/><polygon class="dark-path" fill="#000000" points="225.071 0.135 244 0.135 244 38.038 270.612 38.038 270.612 56.752 225.07 56.752 225.07 0.135"/><polygon fill="#FFFFFF" points="148.909 220.08 148.909 257.316 194.763 257.316 190.441 305.61 148.909 316.82 148.909 355.562 225.249 334.404 225.808 328.114 234.559 230.079 235.467 220.08 225.433 220.08"/><polygon fill="#FFFFFF" points="148.909 144.709 148.909 167.837 148.909 181.856 148.909 181.948 238.736 181.948 238.736 181.948 238.856 181.948 239.603 173.578 241.299 154.7 242.19 144.709"/></g></g></svg>