<svg xmlns="http://www.w3.org/2000/svg" viewBox="0 0 320 320" height="320" width="320" id="svg2" version="1.1"><g transform="matrix(1.3333333,0,0,-1.3333333,0,320)" id="g10"><g id="g12"><g clip-path="url(#clipPath18)" id="g14"><g transform="translate(180,140)" id="g20"><path id="path22" fill="#232323" d="M 0,0 H 20 C 59,0 60,40 60,40 50,30 20,30 20,30 h -80 l 5,20 h 20 c 50,0 50,50 50,50 C -5,80 -35,80 -35,80 h -80 c -50,0 -50,-50 -50,-50 20,20 50,20 50,20 h 20 l -25,-100 c -10,-30 -40,-20 -40,-20 20,0 20,20 20,20 0,0 0,20 -20,20 0,0 -20,0 -20,-20 0,-41.231 50,-40 50,-40 0,0 40,0 50,40 L -67.5,0 H -40 l -21,-80 c -19,-60 46,-60 46,-60 0,0 40,0 40,40 0,20 -20,20 -20,20 -20,0 -20,-20 -20,-20 0,0 -0.666,-14.667 10,-20 0,0 -25,0 -20,20 z"/></g></g></g></g></svg>